PathFileType	4	(X/Y/Z)	C:/Users/empri/Downloads/Take 2024-05-09 02.19.33 PM.trc
DataRate	CameraRate	NumFrames	NumMarkers	Units	OrigDataRate	OrigDataStartFrame	OrigNumFrames
240	240	52	9	mm	240	315	841
Frame#	Time	C7	CLAV	RELB	RFIN	RFRM	RSHO	RUPA	RWRA	RWRB
X1	Y1	Z1	X2	Y2	Z2	X3	Y3	Z3	X4	Y4	Z4	X5	Y5	Z5	X6	Y6	Z6	X7	Y7	Z7	X8	Y8	Z8	X9	Y9	Z9
315	1.313	-142.953	1546.29	-71.6992	28.3824	1374.34	-140.866	158.216	1467.74	288.826	449.47	1403.25	428.21	229.414	1442.81	389.359	-16.0413	1531.76	38.7967	41.1539	1487.06	177.237	372.976	1387.21	385.268	324.39	1383.74	467.472
316	1.317	-143.043	1546.37	-71.8761	28.4093	1374.61	-140.747	157.62	1471	289.027	449.114	1410.24	429.627	228.776	1447.37	389.858	-16.3691	1532.26	38.5312	40.7576	1488.66	177.102	372.843	1393.26	386.422	324.101	1389.68	468.594
317	1.321	-143.104	1546.53	-72.2048	28.4424	1374.85	-140.614	157.053	1474.36	289.146	448.695	1417.16	431.008	228.102	1451.9	390.346	-16.6899	1532.78	38.3185	40.3595	1490.2	176.925	372.849	1399	387.694	323.753	1395.54	469.563
318	1.325	-143.225	1546.61	-72.3494	28.463	1375.09	-140.476	156.368	1477.65	289.347	448.214	1424.11	432.307	227.387	1456.4	390.792	-16.9934	1533.33	38.092	39.9728	1491.75	176.772	372.713	1404.82	388.891	323.412	1401.33	470.569
319	1.329	-143.328	1546.7	-72.4799	28.4815	1375.34	-140.347	155.702	1480.97	289.469	447.774	1431.1	433.616	226.651	1460.88	391.249	-17.3377	1533.86	37.8592	39.5789	1493.37	176.599	372.507	1410.85	390.071	322.963	1407.25	471.568
320	1.333	-143.44	1546.78	-72.6404	28.4985	1375.62	-140.259	155.033	1484.24	289.602	447.156	1438.05	434.805	225.857	1465.4	391.559	-17.6376	1534.39	37.5986	39.1767	1494.98	176.39	372.25	1416.7	391.132	322.505	1413.02	472.496
321	1.337	-143.578	1546.9	-72.8082	28.5103	1375.89	-140.144	154.367	1487.54	289.663	446.549	1445.05	436.002	225.07	1469.86	391.975	-17.9077	1534.96	37.3301	38.7035	1496.61	176.179	371.974	1422.66	392.148	321.984	1418.79	473.311
322	1.342	-143.722	1547.06	-73.0124	28.5787	1376.3	-139.981	153.441	1491.6	289.742	445.659	1453.69	437.434	224.099	1475.41	392.366	-18.2691	1535.66	36.9852	38.1592	1498.7	175.928	371.541	1430.08	393.406	321.254	1426.07	474.385
323	1.346	-143.839	1547.19	-73.1828	28.601	1376.62	-139.867	152.668	1494.83	289.791	444.967	1460.71	438.547	223.191	1479.84	392.671	-18.619	1536.22	36.6936	37.7234	1500.33	175.688	371.189	1436.04	394.414	320.66	1431.75	475.171
324	1.35	-143.945	1547.33	-73.3608	28.645	1376.89	-139.737	151.932	1498.1	289.882	444.112	1467.71	439.435	222.321	1484.16	392.974	-18.9598	1536.74	36.3935	37.2328	1501.96	175.462	370.769	1441.94	395.353	320.107	1437.43	475.915
325	1.354	-144.062	1547.49	-73.5384	28.6767	1377.17	-139.607	151.148	1501.27	289.911	443.308	1474.56	440.529	221.371	1488.51	393.193	-19.3204	1537.3	36.0554	36.7908	1503.6	175.228	370.303	1447.88	396.207	319.41	1443.05	476.6
326	1.358	-144.157	1547.64	-73.7389	28.7089	1377.46	-139.479	150.342	1504.46	289.892	442.362	1481.36	441.487	220.413	1492.8	393.425	-19.5978	1537.87	35.7739	36.306	1505.19	174.957	369.859	1453.78	397.035	318.673	1448.68	477.288
327	1.363	-144.307	1547.83	-74.0272	28.7155	1377.84	-139.36	149.295	1508.32	289.849	441.132	1489.96	442.653	219.262	1498.08	393.734	-20.0342	1538.6	35.3589	35.7484	1507.17	174.609	369.14	1461.02	398.002	317.696	1455.62	478.043
328	1.367	-144.372	1547.99	-74.255	28.7268	1378.15	-139.281	148.483	1511.48	289.81	440.055	1496.75	443.519	218.272	1502.26	393.914	-20.4194	1539.15	34.9957	35.2976	1508.77	174.302	368.605	1466.87	398.731	316.932	1461.11	478.574
329	1.371	-144.456	1548.14	-74.458	28.7343	1378.47	-139.18	147.633	1514.54	289.765	438.914	1503.46	444.32	217.203	1506.41	394.076	-20.7475	1539.71	34.6677	34.7948	1510.32	173.974	367.962	1472.66	399.414	316.148	1466.49	479.143
330	1.375	-144.524	1548.3	-74.6584	28.7356	1378.8	-139.094	146.811	1517.59	289.691	437.746	1510.24	445.083	216.191	1510.51	394.18	-21.0393	1540.24	34.3506	34.3005	1511.92	173.68	367.311	1478.37	400.048	315.321	1471.86	479.638
331	1.379	-144.602	1548.47	-74.8699	28.7357	1379.12	-138.995	145.96	1520.66	289.578	436.588	1516.87	445.828	215.128	1514.56	394.248	-21.4075	1540.77	34.0302	33.8168	1513.48	173.35	366.669	1484.13	400.67	314.462	1477.24	480.128
332	1.383	-144.661	1548.62	-75.0628	28.744	1379.41	-138.911	145.094	1523.68	289.491	435.364	1523.44	446.526	214.074	1518.63	394.363	-21.8515	1541.32	33.6676	33.3424	1515.02	173.007	365.913	1489.78	401.189	313.573	1482.5	480.573
333	1.387	-144.722	1548.76	-75.2596	28.7794	1379.69	-138.826	144.192	1526.6	289.33	434.036	1529.97	447.158	212.975	1522.61	394.404	-22.1138	1541.87	33.3073	32.8754	1516.56	172.662	365.164	1495.37	401.76	312.635	1487.76	480.965
334	1.392	-144.774	1548.95	-75.4927	28.7974	1380.02	-138.722	143.096	1530.34	289.091	432.38	1538.04	447.874	211.603	1527.6	394.407	-22.4914	1542.52	32.8758	32.232	1518.43	172.232	364.167	1502.34	402.341	311.452	1494.31	481.442
335	1.396	-144.82	1549.1	-75.7066	28.7981	1380.29	-138.632	142.203	1533.19	288.928	431.056	1544.4	448.417	210.506	1531.47	394.403	-22.8358	1543.06	32.5439	31.7637	1519.92	171.894	363.348	1507.87	402.814	310.458	1499.44	481.82
336	1.4	-144.904	1549.29	-75.9136	28.7997	1380.56	-138.559	141.353	1536.09	288.734	429.66	1550.84	448.926	209.42	1535.33	394.352	-23.1937	1543.57	32.2175	31.3079	1521.43	171.501	362.526	1513.31	403.228	309.443	1504.51	482.103
337	1.404	-144.916	1549.47	-76.1392	28.8028	1380.85	-138.485	140.504	1538.96	288.537	428.315	1557	449.358	208.29	1539.15	394.308	-23.498	1544.07	31.8399	30.8033	1522.87	171.115	361.62	1518.62	403.587	308.384	1509.65	482.507
338	1.408	-144.928	1549.63	-76.3773	28.7939	1381.13	-138.433	139.625	1541.76	288.29	426.828	1563.14	449.791	207.133	1542.93	394.188	-23.8253	1544.57	31.4496	30.3397	1524.34	170.707	360.653	1523.9	403.935	307.285	1514.48	482.671
339	1.413	-144.949	1549.84	-76.6442	28.7924	1381.47	-138.386	138.511	1545.21	287.928	424.927	1570.61	450.181	205.67	1547.59	394.018	-24.2978	1545.23	30.9531	29.6768	1526.1	170.232	359.431	1530.38	404.361	305.877	1520.56	482.906
340	1.417	-144.948	1550.01	-76.8764	28.7837	1381.74	-138.347	137.622	1547.92	287.624	423.443	1576.37	450.578	204.531	1551.25	393.896	-24.613	1545.75	30.5618	29.2219	1527.54	169.843	358.417	1535.45	404.666	304.72	1525.42	483.062
341	1.421	-144.936	1550.17	-77.1057	28.7664	1382.01	-138.289	136.695	1550.58	287.356	421.903	1582.15	450.921	203.35	1554.83	393.736	-24.8988	1546.26	30.2061	28.7145	1528.95	169.443	357.398	1540.51	404.9	303.54	1530.28	483.235
342	1.425	-144.921	1550.34	-77.372	28.7587	1382.26	-138.237	135.742	1553.18	287.064	420.26	1587.95	451.179	202.137	1558.46	393.538	-25.2163	1546.75	29.8605	28.2357	1530.34	169.024	356.346	1545.48	405.155	302.338	1534.95	483.306
343	1.429	-144.882	1550.51	-77.6453	28.7381	1382.5	-138.188	134.834	1555.78	286.739	418.699	1593.59	451.412	200.965	1561.94	393.349	-25.6116	1547.29	29.4484	27.7229	1531.7	168.597	355.193	1550.34	405.399	301.157	1539.61	483.389
344	1.433	-144.845	1550.69	-77.9021	28.7299	1382.75	-138.122	133.935	1558.38	286.378	417.117	1599.05	451.598	199.764	1565.43	393.129	-25.9514	1547.74	29.0303	27.2469	1533.08	168.165	354.104	1555.1	405.607	299.965	1544.22	483.469
345	1.438	-144.812	1550.89	-78.222	28.7357	1383.1	-138.029	132.783	1561.55	285.989	415.07	1605.86	451.775	198.273	1569.72	392.826	-26.3454	1548.35	28.5538	26.5749	1534.72	167.656	352.722	1561.03	405.763	298.421	1549.97	483.608
346	1.442	-144.794	1551.03	-78.474	28.7321	1383.38	-137.994	131.811	1564.02	285.663	413.501	1611.19	451.931	197.087	1573.1	392.601	-26.7211	1548.84	28.1832	26.1094	1536.07	167.261	351.591	1565.66	405.954	297.159	1554.33	483.516
347	1.446	-144.79	1551.19	-78.7459	28.7173	1383.61	-137.954	130.91	1566.48	285.29	411.834	1616.42	452.026	195.896	1576.34	392.317	-27.0943	1549.35	27.7391	25.568	1537.35	166.839	350.496	1570.2	406.111	295.898	1558.8	483.527
348	1.45	-144.766	1551.34	-79.004	28.6834	1383.87	-137.93	129.971	1568.92	284.941	410.209	1621.59	452.139	194.67	1579.66	392.038	-27.3855	1549.82	27.335	25.0909	1538.66	166.428	349.337	1574.68	406.205	294.624	1563.2	483.561
349	1.454	-144.76	1551.46	-79.2654	28.638	1384.14	-137.9	129.023	1571.31	284.552	408.56	1626.67	452.177	193.485	1582.84	391.754	-27.6786	1550.27	26.9558	24.5739	1539.92	166.003	348.149	1579.05	406.294	293.402	1567.32	483.524
350	1.458	-144.765	1551.59	-79.507	28.601	1384.42	-137.863	128.101	1573.64	284.199	406.902	1631.69	452.214	192.263	1586.02	391.46	-28.0386	1550.76	26.5927	24.093	1541.21	165.522	347.004	1583.33	406.399	292.145	1571.59	483.444
351	1.462	-144.767	1551.75	-79.757	28.5661	1384.68	-137.811	127.153	1575.93	283.807	405.243	1636.5	452.243	191.044	1589.12	391.102	-28.4194	1551.24	26.2488	23.5699	1542.43	165.131	345.785	1587.58	406.448	290.772	1575.71	483.376
352	1.467	-144.759	1551.94	-80.0923	28.5137	1385.04	-137.738	126.003	1578.78	283.278	403.098	1642.49	452.218	189.485	1592.98	390.67	-28.8118	1551.81	25.783	22.9092	1543.94	164.616	344.316	1592.84	406.45	289.161	1580.74	483.246
353	1.471	-144.772	1552.06	-80.3342	28.4668	1385.31	-137.701	125.045	1581.04	282.878	401.42	1647.2	452.18	188.337	1595.93	390.328	-29.0886	1552.26	25.4147	22.4225	1545.16	164.232	343.149	1596.95	406.422	287.868	1584.7	483.122
354	1.475	-144.788	1552.19	-80.5855	28.4227	1385.61	-137.691	124.069	1583.24	282.453	399.749	1651.81	452.142	187.084	1598.89	389.983	-29.5129	1552.72	24.9988	21.8547	1546.32	163.809	341.873	1601.01	406.401	286.545	1588.53	482.987
355	1.479	-144.822	1552.31	-80.8474	28.3809	1385.87	-137.661	123.131	1585.37	282.073	398.084	1656.37	452.075	185.864	1601.79	389.628	-29.847	1553.17	24.6461	21.3674	1547.51	163.372	340.625	1605.05	406.272	285.264	1592.34	482.876
356	1.483	-144.851	1552.43	-81.094	28.3419	1386.16	-137.636	122.21	1587.47	281.678	396.33	1660.82	451.989	184.632	1604.67	389.262	-30.1592	1553.61	24.2798	20.8225	1548.6	162.984	339.385	1608.99	406.224	283.94	1596.16	482.739
357	1.488	-144.891	1552.58	-81.4016	28.2912	1386.54	-137.622	121.042	1590.06	281.17	394.242	1666.22	451.795	183.151	1608.11	388.77	-30.4961	1554.13	23.7969	20.1614	1550.01	162.419	337.829	1613.78	406.131	282.295	1600.75	482.489
358	1.492	-144.944	1552.71	-81.6556	28.2586	1386.83	-137.603	120.132	1592.11	280.713	392.522	1670.52	451.656	181.925	1610.83	388.416	-30.8513	1554.57	23.4105	19.6396	1551.11	162.005	336.522	1617.51	406.024	280.967	1604.32	482.281
359	1.496	-144.989	1552.82	-81.9147	28.1915	1387.09	-137.593	119.201	1594.07	280.298	390.816	1674.68	451.535	180.719	1613.52	388.018	-31.1485	1554.98	23.0646	19.1337	1552.2	161.591	335.297	1621.24	405.9	279.693	1607.83	482.127
360	1.5	-145.032	1552.95	-82.1921	28.14	1387.35	-137.552	118.204	1596	279.906	389.148	1678.83	451.339	179.524	1616.08	387.69	-31.3862	1555.39	22.7293	18.5782	1553.23	161.157	334.012	1624.86	405.765	278.391	1611.3	481.931
361	1.504	-145.065	1553.04	-82.4802	28.0497	1387.62	-137.541	117.279	1597.9	279.49	387.408	1682.83	451.18	178.292	1618.66	387.301	-31.6383	1555.75	22.4269	18.0819	1554.29	160.747	332.683	1628.45	405.62	277.024	1614.69	481.71
362	1.508	-145.106	1553.12	-82.7581	28.0012	1387.86	-137.552	116.333	1599.75	279.118	385.766	1686.78	451.021	177.084	1621.15	386.894	-31.881	1556.13	22.0891	17.5715	1555.3	160.282	331.424	1631.97	405.446	275.696	1617.99	481.493
363	1.513	-145.16	1553.24	-83.0956	27.9778	1388.17	-137.559	115.179	1602.01	278.603	383.653	1691.56	450.73	175.594	1624.14	386.432	-32.2839	1556.68	21.6199	16.9377	1556.6	159.773	329.822	1636.26	405.257	274.055	1622.07	481.177
364	1.517	-145.207	1553.35	-83.3824	27.9152	1388.39	-137.583	114.226	1603.8	278.194	382.01	1695.39	450.568	174.388	1626.53	386.099	-32.5869	1557.06	21.2483	16.4617	1557.6	159.373	328.555	1639.62	405.043	272.785	1625.22	480.958
365	1.521	-145.247	1553.45	-83.6638	27.863	1388.6	-137.563	113.26	1605.57	277.752	380.313	1699.12	450.346	173.171	1628.88	385.741	-32.9089	1557.49	20.8706	15.8792	1558.59	158.965	327.274	1642.93	404.862	271.538	1628.28	480.735
366	1.525	-145.286	1553.58	-83.9446	27.8047	1388.81	-137.558	112.356	1607.27	277.416	378.665	1702.74	450.128	172.006	1631.14	385.393	-33.1555	1557.89	20.5378	15.3901	1559.53	158.548	326.083	1646.15	404.665	270.289	1631.28	480.514
